<svg xmlns="http://www.w3.org/2000/svg" xmlns:xlink="http://www.w3.org/1999/xlink" width="1060" height="839.85"><rect width="1060" height="839.85" rx="5" ry="5" class="a"/><svg y="0%" x="0%"><circle cx="20" cy="20" r="6" fill="#ff5f58"/><circle cx="40" cy="20" r="6" fill="#ffbd2e"/><circle cx="60" cy="20" r="6" fill="#18c132"/></svg><svg height="759.85" viewBox="0 0 100 75.985" width="1000" x="25" xmlns="http://www.w3.org/2000/svg" xmlns:xlink="http://www.w3.org/1999/xlink" y="60"><style>@keyframes i{0%{transform:translateX(-2300px)}.2%{transform:translateX(-100px)}56.9%{transform:translateX(-300px)}1.2%{transform:translateX(-1800px)}13.4%{transform:translateX(-1900px)}.1%{transform:translateX(-2100px)}to{transform:translateX(-2400px)}}.a{fill:#282d35}.f{fill:#b9c0cb;white-space:pre}</style><g font-family="Monaco,Consolas,Menlo,'Bitstream Vera Sans Mono','Powerline Symbols',monospace" font-size="1.67"><defs><symbol id="1"><text x="2.004" y="1.67" class="f">NeuroStack</text><text x="13.026" y="1.67" class="f">v0.1.0</text><text x="20.04" y="1.67" class="f">—</text><text x="22.044" y="1.67" class="f">AI-provider-agnostic</text><text x="43.086" y="1.67" class="f">knowledge</text><text x="53.106" y="1.67" class="f">management</text></symbol><symbol id="2"><text x="2.004" y="1.67" class="f">https://github.com/raphasouthall/neurostack</text></symbol><symbol id="3"><text y="1.67" class="f">$</text><text x="2.004" y="1.67" class="f">neurostack</text></symbol><symbol id="4"><text y="1.67" class="f">$</text><text x="2.004" y="1.67" class="f">neurostack</text><text x="13.026" y="1.67" class="f">demo</text></symbol><symbol id="5"><text y="1.67" class="f">============================================================</text></symbol><symbol id="6"><text x="2.004" y="1.67" class="f">NeuroStack</text><text x="13.026" y="1.67" class="f">Demo</text></symbol><symbol id="7"><text x="2.004" y="1.67" class="f">Sample</text><text x="9.018" y="1.67" class="f">vault:</text><text x="16.032" y="1.67" class="f">/tmp/neurostack-demo-vjlbjd_m/demo-vault</text></symbol><symbol id="8"><text x="2.004" y="1.67" class="f">Database:</text><text x="12.024" y="1.67" class="f">/tmp/neurostack-demo-vjlbjd_m/demo.db</text></symbol><symbol id="9"><text y="1.67" class="f">---</text><text x="4.008" y="1.67" class="f">Step</text><text x="9.018" y="1.67" class="f">1:</text><text x="12.024" y="1.67" class="f">Indexing</text><text x="21.042" y="1.67" class="f">sample</text><text x="28.056" y="1.67" class="f">vault</text><text x="34.068" y="1.67" class="f">(FTS5</text><text x="40.08" y="1.67" class="f">lite</text><text x="45.09" y="1.67" class="f">mode)</text><text x="51.102" y="1.67" class="f">---</text></symbol><symbol id="10"><text x="2.004" y="1.67" class="f">Indexed</text><text x="10.02" y="1.67" class="f">19</text><text x="13.026" y="1.67" class="f">notes,</text><text x="20.04" y="1.67" class="f">59</text><text x="23.046" y="1.67" class="f">chunks</text></symbol><symbol id="11"><text y="1.67" class="f">---</text><text x="4.008" y="1.67" class="f">Step</text><text x="9.018" y="1.67" class="f">2:</text><text x="12.024" y="1.67" class="f">FTS5</text><text x="17.034" y="1.67" class="f">search</text><text x="24.048" y="1.67" class="f">for</text><text x="28.056" y="1.67" class="f">&apos;prediction</text><text x="40.08" y="1.67" class="f">errors&apos;</text><text x="48.096" y="1.67" class="f">---</text></symbol><symbol id="12"><text x="2.004" y="1.67" class="f">research/prediction-errors-in-learning.md</text></symbol><symbol id="13"><text x="4.008" y="1.67" class="f">#</text><text x="6.012" y="1.67" class="f">Prediction</text><text x="17.034" y="1.67" class="f">Errors</text><text x="24.048" y="1.67" class="f">in</text><text x="27.054" y="1.67" class="f">Learning</text><text x="37.074" y="1.67" class="f">Prediction</text><text x="48.096" y="1.67" class="f">errors</text><text x="55.11" y="1.67" class="f">—</text><text x="57.114" y="1.67" class="f">the</text><text x="61.122" y="1.67" class="f">difference</text><text x="72.144" y="1.67" class="f">between</text><text x="80.16" y="1.67" class="f">what</text><text x="85.17" y="1.67" class="f">the</text><text x="89.178" y="1.67" class="f">brain</text><text x="95.19" y="1.67" class="f">expec</text></symbol><symbol id="14"><text y="1.67" class="f">ts</text><text x="3.006" y="1.67" class="f">and</text><text x="7.014" y="1.67" class="f">what</text><text x="12.024" y="1.67" class="f">it</text><text x="15.03" y="1.67" class="f">observes</text><text x="24.048" y="1.67" class="f">...</text></symbol><symbol id="15"><text x="2.004" y="1.67" class="f">research/spaced-repetition.md</text></symbol><symbol id="16"><text x="4.008" y="1.67" class="f">##</text><text x="7.014" y="1.67" class="f">Connection</text><text x="18.036" y="1.67" class="f">to</text><text x="21.042" y="1.67" class="f">Prediction</text><text x="32.064" y="1.67" class="f">Errors</text><text x="40.08" y="1.67" class="f">When</text><text x="45.09" y="1.67" class="f">you</text><text x="49.098" y="1.67" class="f">retrieve</text><text x="58.116" y="1.67" class="f">information</text><text x="70.14" y="1.67" class="f">successfully</text><text x="83.166" y="1.67" class="f">during</text><text x="90.18" y="1.67" class="f">review,</text><text x="98.196" y="1.67" class="f">th</text></symbol><symbol id="17"><text y="1.67" class="f">e</text><text x="2.004" y="1.67" class="f">**prediction</text><text x="15.03" y="1.67" class="f">error**</text><text x="23.046" y="1.67" class="f">i...</text></symbol><symbol id="18"><text x="4.008" y="1.67" class="f">##</text><text x="7.014" y="1.67" class="f">The</text><text x="11.022" y="1.67" class="f">Predictive</text><text x="22.044" y="1.67" class="f">Brain</text><text x="29.058" y="1.67" class="f">The</text><text x="33.066" y="1.67" class="f">brain</text><text x="39.078" y="1.67" class="f">constantly</text><text x="50.1" y="1.67" class="f">generates</text><text x="60.12" y="1.67" class="f">predictions</text><text x="72.144" y="1.67" class="f">about</text><text x="78.156" y="1.67" class="f">incoming</text><text x="87.174" y="1.67" class="f">information.</text></symbol><symbol id="19"><text y="1.67" class="f">When</text><text x="5.01" y="1.67" class="f">predictions</text><text x="17.034" y="1.67" class="f">fail:</text><text x="23.046" y="1.67" class="f">-...</text></symbol><symbol id="20"><text y="1.67" class="f">---</text><text x="4.008" y="1.67" class="f">Step</text><text x="9.018" y="1.67" class="f">3:</text><text x="12.024" y="1.67" class="f">Wiki-link</text><text x="22.044" y="1.67" class="f">graph</text><text x="28.056" y="1.67" class="f">for</text><text x="32.064" y="1.67" class="f">&apos;memory-consolidation&apos;</text><text x="55.11" y="1.67" class="f">---</text></symbol><symbol id="21"><text x="2.004" y="1.67" class="f">Center:</text><text x="10.02" y="1.67" class="f">Memory</text><text x="17.034" y="1.67" class="f">Consolidation</text><text x="31.062" y="1.67" class="f">(PageRank:</text><text x="42.084" y="1.67" class="f">0.0829)</text></symbol><symbol id="22"><text x="2.004" y="1.67" class="f">Neighbors</text><text x="12.024" y="1.67" class="f">(5):</text></symbol><symbol id="23"><text x="4.008" y="1.67" class="f">-</text><text x="6.012" y="1.67" class="f">Prediction</text><text x="17.034" y="1.67" class="f">Errors</text><text x="24.048" y="1.67" class="f">in</text><text x="27.054" y="1.67" class="f">Learning</text><text x="36.072" y="1.67" class="f">(PageRank:</text><text x="47.094" y="1.67" class="f">0.0837)</text></symbol><symbol id="24"><text x="4.008" y="1.67" class="f">-</text><text x="6.012" y="1.67" class="f">Spaced</text><text x="13.026" y="1.67" class="f">Repetition</text><text x="24.048" y="1.67" class="f">(PageRank:</text><text x="35.07" y="1.67" class="f">0.0709)</text></symbol><symbol id="25"><text x="4.008" y="1.67" class="f">-</text><text x="6.012" y="1.67" class="f">Complementary</text><text x="20.04" y="1.67" class="f">Learning</text><text x="29.058" y="1.67" class="f">Systems</text><text x="37.074" y="1.67" class="f">(PageRank:</text><text x="48.096" y="1.67" class="f">0.0503)</text></symbol><symbol id="26"><text x="4.008" y="1.67" class="f">-</text><text x="6.012" y="1.67" class="f">Active</text><text x="13.026" y="1.67" class="f">Recall</text><text x="20.04" y="1.67" class="f">(PageRank:</text><text x="31.062" y="1.67" class="f">0.0485)</text></symbol><symbol id="27"><text x="4.008" y="1.67" class="f">-</text><text x="6.012" y="1.67" class="f">Research</text><text x="15.03" y="1.67" class="f">(PageRank:</text><text x="26.052" y="1.67" class="f">0.0079)</text></symbol><symbol id="28"><text y="1.67" class="f">---</text><text x="4.008" y="1.67" class="f">Step</text><text x="9.018" y="1.67" class="f">4:</text><text x="12.024" y="1.67" class="f">Index</text><text x="18.036" y="1.67" class="f">stats</text><text x="24.048" y="1.67" class="f">---</text></symbol><symbol id="29"><text x="2.004" y="1.67" class="f">Notes:</text><text x="9.018" y="1.67" class="f">19</text></symbol><symbol id="30"><text x="2.004" y="1.67" class="f">Chunks:</text><text x="10.02" y="1.67" class="f">59</text></symbol><symbol id="31"><text x="2.004" y="1.67" class="f">Wiki-link</text><text x="12.024" y="1.67" class="f">edges:</text><text x="19.038" y="1.67" class="f">26</text></symbol><symbol id="32"><text x="2.004" y="1.67" class="f">Demo</text><text x="7.014" y="1.67" class="f">complete!</text></symbol><symbol id="33"><text x="2.004" y="1.67" class="f">To</text><text x="5.01" y="1.67" class="f">use</text><text x="9.018" y="1.67" class="f">with</text><text x="14.028" y="1.67" class="f">your</text><text x="19.038" y="1.67" class="f">own</text><text x="23.046" y="1.67" class="f">vault:</text></symbol><symbol id="34"><text x="4.008" y="1.67" class="f">neurostack</text><text x="15.03" y="1.67" class="f">init</text><text x="20.04" y="1.67" class="f">~/my-vault</text></symbol><symbol id="35"><text x="4.008" y="1.67" class="f">neurostack</text><text x="15.03" y="1.67" class="f">index</text></symbol><symbol id="36"><text x="4.008" y="1.67" class="f">neurostack</text><text x="15.03" y="1.67" class="f">search</text><text x="22.044" y="1.67" class="f">&apos;your</text><text x="28.056" y="1.67" class="f">query&apos;</text></symbol><symbol id="a"><path fill="transparent" d="M0 0h100v36H0z"/></symbol><symbol id="b"><path fill="#6f7683" d="M0 0h1.102v2.171H0z"/></symbol></defs><path class="a" d="M0 0h100v75.985H0z"/><g style="animation-duration:3.521s;animation-iteration-count:infinite;animation-name:i;animation-timing-function:steps(1,end)"><svg width="2500"><svg><use xlink:href="#a"/><use xlink:href="#b" x="-.004"/></svg><svg x="100"><use xlink:href="#a"/><use xlink:href="#b" x="-.004"/></svg><svg x="200"><use xlink:href="#a"/><use xlink:href="#b" x="-.004" y="6.488"/><use xlink:href="#1"/><use xlink:href="#2" y="2.171"/></svg><svg x="300"><use xlink:href="#a"/><use xlink:href="#b" x="2.996" y="8.659"/><use xlink:href="#1"/><use xlink:href="#2" y="2.171"/><text y="10.354" class="f">$</text><text x="2.004" y="10.354" class="f">n</text></svg><svg x="400"><use xlink:href="#a"/><use xlink:href="#b" x="3.996" y="8.659"/><use xlink:href="#1"/><use xlink:href="#2" y="2.171"/><text y="10.354" class="f">$</text><text x="2.004" y="10.354" class="f">ne</text></svg><svg x="500"><use xlink:href="#a"/><use xlink:href="#b" x="4.996" y="8.659"/><use xlink:href="#1"/><use xlink:href="#2" y="2.171"/><text y="10.354" class="f">$</text><text x="2.004" y="10.354" class="f">neu</text></svg><svg x="600"><use xlink:href="#a"/><use xlink:href="#b" x="5.996" y="8.659"/><use xlink:href="#1"/><use xlink:href="#2" y="2.171"/><text y="10.354" class="f">$</text><text x="2.004" y="10.354" class="f">neur</text></svg><svg x="700"><use xlink:href="#a"/><use xlink:href="#b" x="6.996" y="8.659"/><use xlink:href="#1"/><use xlink:href="#2" y="2.171"/><text y="10.354" class="f">$</text><text x="2.004" y="10.354" class="f">neuro</text></svg><svg x="800"><use xlink:href="#a"/><use xlink:href="#b" x="7.996" y="8.659"/><use xlink:href="#1"/><use xlink:href="#2" y="2.171"/><text y="10.354" class="f">$</text><text x="2.004" y="10.354" class="f">neuros</text></svg><svg x="900"><use xlink:href="#a"/><use xlink:href="#b" x="8.996" y="8.659"/><use xlink:href="#1"/><use xlink:href="#2" y="2.171"/><text y="10.354" class="f">$</text><text x="2.004" y="10.354" class="f">neurost</text></svg><svg x="1000"><use xlink:href="#a"/><use xlink:href="#b" x="9.996" y="8.659"/><use xlink:href="#1"/><use xlink:href="#2" y="2.171"/><text y="10.354" class="f">$</text><text x="2.004" y="10.354" class="f">neurosta</text></svg><svg x="1100"><use xlink:href="#a"/><use xlink:href="#b" x="10.996" y="8.659"/><use xlink:href="#1"/><use xlink:href="#2" y="2.171"/><text y="10.354" class="f">$</text><text x="2.004" y="10.354" class="f">neurostac</text></svg><svg x="1200"><use xlink:href="#a"/><use xlink:href="#b" x="11.996" y="8.659"/><use xlink:href="#1"/><use xlink:href="#2" y="2.171"/><use xlink:href="#3" y="8.684"/></svg><svg x="1300"><use xlink:href="#a"/><use xlink:href="#b" x="12.996" y="8.659"/><use xlink:href="#1"/><use xlink:href="#2" y="2.171"/><use xlink:href="#3" y="8.684"/></svg><svg x="1400"><use xlink:href="#a"/><use xlink:href="#b" x="13.996" y="8.659"/><use xlink:href="#1"/><use xlink:href="#2" y="2.171"/><text y="10.354" class="f">$</text><text x="2.004" y="10.354" class="f">neurostack</text><text x="13.026" y="10.354" class="f">d</text></svg><svg x="1500"><use xlink:href="#a"/><use xlink:href="#b" x="14.996" y="8.659"/><use xlink:href="#1"/><use xlink:href="#2" y="2.171"/><text y="10.354" class="f">$</text><text x="2.004" y="10.354" class="f">neurostack</text><text x="13.026" y="10.354" class="f">de</text></svg><svg x="1600"><use xlink:href="#a"/><use xlink:href="#b" x="15.996" y="8.659"/><use xlink:href="#1"/><use xlink:href="#2" y="2.171"/><text y="10.354" class="f">$</text><text x="2.004" y="10.354" class="f">neurostack</text><text x="13.026" y="10.354" class="f">dem</text></svg><svg x="1700"><use xlink:href="#a"/><use xlink:href="#b" x="16.996" y="8.659"/><use xlink:href="#1"/><use xlink:href="#2" y="2.171"/><use xlink:href="#4" y="8.684"/></svg><svg x="1800"><use xlink:href="#a"/><use xlink:href="#b" x="-.004" y="10.83"/><use xlink:href="#1"/><use xlink:href="#2" y="2.171"/><use xlink:href="#4" y="8.684"/></svg><svg x="1900"><use xlink:href="#a"/><use xlink:href="#b" x="-.004" y="26.027"/><use xlink:href="#1"/><use xlink:href="#2" y="2.171"/><use xlink:href="#4" y="8.684"/><use xlink:href="#5" y="10.855"/><use xlink:href="#6" y="13.026"/><use xlink:href="#5" y="15.197"/><use xlink:href="#7" y="19.539"/><use xlink:href="#8" y="21.71"/></svg><svg x="2000"><use xlink:href="#a"/><use xlink:href="#b" x="-.004" y="30.369"/><use xlink:href="#1"/><use xlink:href="#2" y="2.171"/><use xlink:href="#4" y="8.684"/><use xlink:href="#5" y="10.855"/><use xlink:href="#6" y="13.026"/><use xlink:href="#5" y="15.197"/><use xlink:href="#7" y="19.539"/><use xlink:href="#8" y="21.71"/><use xlink:href="#9" y="26.052"/></svg><svg x="2100"><use xlink:href="#a"/><use xlink:href="#b" x="-.004" y="69.447"/><use xlink:href="#1"/><use xlink:href="#2" y="2.171"/><use xlink:href="#4" y="8.684"/><use xlink:href="#5" y="10.855"/><use xlink:href="#6" y="13.026"/><use xlink:href="#5" y="15.197"/><use xlink:href="#7" y="19.539"/><use xlink:href="#8" y="21.71"/><use xlink:href="#9" y="26.052"/><use xlink:href="#10" y="30.394"/><use xlink:href="#11" y="34.736"/><use xlink:href="#12" y="39.078"/><use xlink:href="#13" y="41.249"/><use xlink:href="#14" y="43.42"/><use xlink:href="#15" y="47.762"/><use xlink:href="#16" y="49.933"/><use xlink:href="#17" y="52.104"/><use xlink:href="#12" y="56.446"/><use xlink:href="#18" y="58.617"/><use xlink:href="#19" y="60.788"/><use xlink:href="#20" y="65.13"/></svg><svg x="2200"><use xlink:href="#a"/><use xlink:href="#b" x="-.004" y="75.96"/><use xlink:href="#8"/><use xlink:href="#9" y="4.342"/><use xlink:href="#10" y="8.684"/><use xlink:href="#11" y="13.026"/><use xlink:href="#12" y="17.368"/><use xlink:href="#13" y="19.539"/><use xlink:href="#14" y="21.71"/><use xlink:href="#15" y="26.052"/><use xlink:href="#16" y="28.223"/><use xlink:href="#17" y="30.394"/><use xlink:href="#12" y="34.736"/><use xlink:href="#18" y="36.907"/><use xlink:href="#19" y="39.078"/><use xlink:href="#20" y="43.42"/><use xlink:href="#21" y="47.762"/><use xlink:href="#22" y="49.933"/><use xlink:href="#23" y="52.104"/><use xlink:href="#24" y="54.275"/><use xlink:href="#25" y="56.446"/><use xlink:href="#26" y="58.617"/><use xlink:href="#27" y="60.788"/><use xlink:href="#28" y="65.13"/><use xlink:href="#29" y="69.472"/><use xlink:href="#30" y="71.643"/><use xlink:href="#31" y="73.814"/></svg><svg x="2300"><use xlink:href="#a"/><use xlink:href="#b" x="-.004" y="75.96"/><use xlink:href="#13"/><use xlink:href="#14" y="2.171"/><use xlink:href="#15" y="6.513"/><use xlink:href="#16" y="8.684"/><use xlink:href="#17" y="10.855"/><use xlink:href="#12" y="15.197"/><use xlink:href="#18" y="17.368"/><use xlink:href="#19" y="19.539"/><use xlink:href="#20" y="23.881"/><use xlink:href="#21" y="28.223"/><use xlink:href="#22" y="30.394"/><use xlink:href="#23" y="32.565"/><use xlink:href="#24" y="34.736"/><use xlink:href="#25" y="36.907"/><use xlink:href="#26" y="39.078"/><use xlink:href="#27" y="41.249"/><use xlink:href="#28" y="45.591"/><use xlink:href="#29" y="49.933"/><use xlink:href="#30" y="52.104"/><use xlink:href="#31" y="54.275"/><use xlink:href="#5" y="58.617"/><use xlink:href="#32" y="60.788"/><use xlink:href="#33" y="65.13"/><use xlink:href="#34" y="67.301"/><use xlink:href="#35" y="69.472"/><use xlink:href="#36" y="71.643"/><use xlink:href="#5" y="73.814"/></svg><svg x="2400"><use xlink:href="#a"/><use xlink:href="#b" x="-.004" y="75.96"/><use xlink:href="#15" y="2.171"/><use xlink:href="#16" y="4.342"/><use xlink:href="#17" y="6.513"/><use xlink:href="#12" y="10.855"/><use xlink:href="#18" y="13.026"/><use xlink:href="#19" y="15.197"/><use xlink:href="#20" y="19.539"/><use xlink:href="#21" y="23.881"/><use xlink:href="#22" y="26.052"/><use xlink:href="#23" y="28.223"/><use xlink:href="#24" y="30.394"/><use xlink:href="#25" y="32.565"/><use xlink:href="#26" y="34.736"/><use xlink:href="#27" y="36.907"/><use xlink:href="#28" y="41.249"/><use xlink:href="#29" y="45.591"/><use xlink:href="#30" y="47.762"/><use xlink:href="#31" y="49.933"/><use xlink:href="#5" y="54.275"/><use xlink:href="#32" y="56.446"/><use xlink:href="#33" y="60.788"/><use xlink:href="#34" y="62.959"/><use xlink:href="#35" y="65.13"/><use xlink:href="#36" y="67.301"/><use xlink:href="#5" y="69.472"/><text x="2.004" y="75.484" class="f">Install</text><text x="10.02" y="75.484" class="f">with:</text><text x="16.032" y="75.484" class="f">pip</text><text x="20.04" y="75.484" class="f">install</text><text x="28.056" y="75.484" class="f">neurostack</text></svg></svg></g></g></svg></svg>