<svg xmlns="http://www.w3.org/2000/svg" viewBox="0 0 32 32">
  <rect width="32" height="32" rx="4" fill="#2d2218"/>
  <g transform="translate(3.02, 3.0) scale(0.2014)">
    <path fill="#c4956a" d="M71.64,4.52v29.03c0,4.02,4.85,6.03,7.7,3.2l20.73-20.6c1.78-1.77,4.65-1.75,6.41.04l4.81,4.9c1.73,1.76,1.72,4.57,0,6.33l-19.71,20.06s-2.8,3.42-8.5,3.42h-22.35s-9.94.15-10.41,12.49v21.26c0,.33-.03.66-.11.98-.23,1.02-.81,3.33-1.64,4.43s-14.85,15-21.3,21.39c-1.77,1.75-4.63,1.74-6.38-.03l-4.78-4.83c-1.74-1.76-1.74-4.59,0-6.35l20.59-20.89c2.81-2.85.79-7.69-3.22-7.69H4.52c-2.49,0-4.52-2.02-4.52-4.52v-6.83c0-2.5,2.03-4.53,4.53-4.52l28.83.1c4.02.01,6.05-4.84,3.22-7.69l-20.54-20.74c-1.78-1.8-1.74-4.72.1-6.46l4.99-4.73c1.79-1.69,4.6-1.64,6.32.11l20.41,20.72c2.82,2.86,7.69.89,7.73-3.12l.3-29.51c.03-2.48,2.04-4.47,4.52-4.47h6.69c2.49,0,4.52,2.02,4.52,4.52Z"/>
    <path fill="#c4956a" d="M128.85,60.88v7.41c0,2.48-2.01,4.5-4.5,4.5h-38.11c-.74,0-1.1.89-.58,1.41l26.89,26.89c1.74,1.74,1.76,4.57.03,6.33l-4.62,4.71c-1.74,1.77-4.59,1.8-6.36.06l-27.72-27.19c-.49-.48-1.32-.13-1.31.56l.71,38.97c.05,2.52-1.98,4.58-4.5,4.58h-7.37c-2.48,0-4.5-2.01-4.5-4.5v-60.46s-.77-7.04,6.01-7.19c5.64-.13,47.43-.47,61.4-.58,2.5-.02,4.53,2,4.53,4.5Z"/>
  </g>
</svg>
